<svg width="38" height="38" viewBox="0 0 38 38" fill="none" xmlns="http://www.w3.org/2000/svg">
<g id="Group">
<path id="Vector" d="M28.5002 9.49996H25.3335C25.3335 6.00079 22.4993 3.16663 19.0002 3.16663C15.501 3.16663 12.6668 6.00079 12.6668 9.49996H9.50016C7.7585 9.49996 6.3335 10.925 6.3335 12.6666V31.6666C6.3335 33.4083 7.7585 34.8333 9.50016 34.8333H28.5002C30.2418 34.8333 31.6668 33.4083 31.6668 31.6666V12.6666C31.6668 10.925 30.2418 9.49996 28.5002 9.49996ZM19.0002 6.33329C20.7418 6.33329 22.1668 7.75829 22.1668 9.49996H15.8335C15.8335 7.75829 17.2585 6.33329 19.0002 6.33329ZM28.5002 31.6666H9.50016V12.6666H12.6668V15.8333C12.6668 16.7041 13.3793 17.4166 14.2502 17.4166C15.121 17.4166 15.8335 16.7041 15.8335 15.8333V12.6666H22.1668V15.8333C22.1668 16.7041 22.8793 17.4166 23.7502 17.4166C24.621 17.4166 25.3335 16.7041 25.3335 15.8333V12.6666H28.5002V31.6666Z" fill="#002F52"/>
</g>
</svg>
